<svg width="375" height="216" viewBox="0 0 375 216" xmlns="http://www.w3.org/2000/svg"><title>desktop-type</title><g id="Assets" fill="none" fill-rule="evenodd"><g id="desktop-type" fill="#FFF"><g id="Group"><path d="M21.92 142.96c4.96 0 8.8-1.12 10.8-2.32v-8.8c-1.04.32-2.4.56-3.68.56-3.12 0-4.88-.88-4.88-4.4v-19.44h8.16v-9.68h-8.16V88.8H11.12L9.2 98.72l-5.76 2.24v7.6h4.24v22.08c0 9.36 5.2 12.32 14.24 12.32zM35.6 142h23.52v-8.4l-2.8-.8v-21.52c1.36-.48 2.64-.88 4.4-.88 2.8 0 4.08 1.04 4.08 3.92v18.48l-2.8.8v8.4h23.12v-8.4l-3.84-1.12V108.4c0-7.44-4.72-10.48-10.96-10.48-6.16 0-9.76 2.16-13.6 5.28h-.4V82.64l-1.44-.72-19.6 1.92v8.48l4.56 1.28v38.88l-4.24 1.12v8.4zm75.04 1.04c-15.2 0-23.44-7.84-23.44-22.64 0-14.24 8.64-22.48 22.32-22.48 13.44 0 20.08 6.16 20.08 25.36h-25.28c.88 6.64 4.56 8.56 10.96 8.56 5.52 0 9.28-.96 12.32-1.92v8.8c-3.2 2.16-8.4 4.32-16.96 4.32zm-1.28-35.44c-2.48 0-4.56 1.44-5.12 8.16l9.68-.4c0-6.24-2.08-7.76-4.56-7.76zm54.56 35.36c4.96 0 8.8-1.12 10.8-2.32v-8.8c-1.04.32-2.4.56-3.68.56-3.12 0-4.88-.88-4.88-4.4v-19.44h8.16v-9.68h-8.16V88.8h-13.04l-1.92 9.92-5.76 2.24v7.6h4.24v22.08c0 9.36 5.2 12.32 14.24 12.32zm36.4.08c-14.88 0-22.72-8.56-22.72-22.32 0-15.12 10-22.8 22.72-22.8 14.88 0 22.72 8 22.72 22.24 0 15.12-10.08 22.88-22.72 22.88zm.08-9.92c3.44 0 5.2-2.48 5.2-12.4 0-10.56-1.92-12.96-5.36-12.96-3.44 0-5.28 2.08-5.28 12.4 0 10.56 1.92 12.96 5.44 12.96zm37.28 8.88h14.56l6.4-22.4h.24l6.4 22.4h14.4l9.92-33.68 3.04-1.04v-8.4H274.4v8.4l2.96.88-3.52 14.8h-.32l-6.96-24.08h-11.52l-6.96 24.08h-.32l-3.6-14.8 3.12-.88v-8.4h-22.56v8.4l3.04 1.04 9.92 33.68zm80.4 1.04c-15.2 0-23.44-7.84-23.44-22.64 0-14.24 8.64-22.48 22.32-22.48 13.44 0 20.08 6.16 20.08 25.36h-25.28c.88 6.64 4.56 8.56 10.96 8.56 5.52 0 9.28-.96 12.32-1.92v8.8c-3.2 2.16-8.4 4.32-16.96 4.32zm-1.28-35.44c-2.48 0-4.56 1.44-5.12 8.16l9.68-.4c0-6.24-2.08-7.76-4.56-7.76zm22.8 34.4h26.56v-8.4l-5.84-1.12v-18.64c2.4-.96 4.96-1.28 8.88-1.28 1.52 0 3.04.16 3.92.4V98.4c-.56-.16-1.44-.24-2.16-.24-4.96 0-8.56 3.04-10.8 7.12h-.48v-6.64l-1.36-.64-19.04 1.84v8.56l4.56 1.28v22.8l-4.24 1.12v8.4zM1.2 214h23.52v-8.4l-2.8-.8v-21.52c1.36-.48 2.64-.88 4.4-.88 2.8 0 4.08 1.04 4.08 3.92v18.48l-2.8.8v8.4h23.12v-8.4l-3.84-1.12V180.4c0-7.44-4.72-10.48-10.96-10.48-6.16 0-10.08 2.16-14.16 5.52h-.48v-4.8l-1.36-.64-19.04 1.84v8.56l4.56 1.28v22.8L1.2 205.6v8.4zm75.12 1.04c-15.2 0-23.44-7.84-23.44-22.64 0-14.24 8.64-22.48 22.32-22.48 13.44 0 20.08 6.16 20.08 25.36H70c.88 6.64 4.56 8.56 10.96 8.56 5.52 0 9.28-.96 12.32-1.92v8.8c-3.2 2.16-8.4 4.32-16.96 4.32zm-1.28-35.44c-2.48 0-4.56 1.44-5.12 8.16l9.68-.4c0-6.24-2.08-7.76-4.56-7.76zM98.08 214h18.96v-8.4l-3.04-.8 4.48-6.4h.24l4.56 6.4-2.96.8v8.4h25.6v-8.4l-3.44-1.04-8.8-11.28 9.36-13.04 2.56-.96v-8.4h-17.68v8.4l2.96.8-4.32 6.72h-.32l-4.32-6.72 2.96-.8v-8.4h-26v8.4l3.6 1.12 9.04 11.6-9.92 12.56-3.52 1.04v8.4zm68.16.96c4.96 0 8.8-1.12 10.8-2.32v-8.8c-1.04.32-2.4.56-3.68.56-3.12 0-4.88-.88-4.88-4.4v-19.44h8.16v-9.68h-8.16V160.8h-13.04l-1.92 9.92-5.76 2.24v7.6H152v22.08c0 9.36 5.2 12.32 14.24 12.32zm44.08 0c-8.08 0-16.48-5.04-16.48-21.44 0-17.68 9.36-23.6 20.64-23.6 3.36 0 5.12.56 6.8 1.28v-5.52l-4.64-1.28v-8.56l19.68-1.84 1.44.64v48.56l4.24 1.28v8.4l-17.6 1.92-1.36-.64v-4.08h-.48c-2.32 2.96-6.8 4.88-12.24 4.88zm6.56-11.44c1.84 0 3.2-.4 4.4-1.12v-21.12c-.96-.72-1.92-1.28-3.92-1.28-3.76 0-6.16 2.08-6.16 11.84 0 8.96 2 11.68 5.68 11.68zm50.08 11.52c-14.88 0-22.72-8.56-22.72-22.32 0-15.12 10-22.8 22.72-22.8 14.88 0 22.72 8 22.72 22.24 0 15.12-10.08 22.88-22.72 22.88zm.08-9.92c3.44 0 5.2-2.48 5.2-12.4 0-10.56-1.92-12.96-5.36-12.96-3.44 0-5.28 2.08-5.28 12.4 0 10.56 1.92 12.96 5.44 12.96zm47.6 9.92c-14.88 0-22.72-8.56-22.72-22.32 0-15.12 10-22.8 22.72-22.8 14.88 0 22.72 8 22.72 22.24 0 15.12-10.08 22.88-22.72 22.88zm.08-9.92c3.44 0 5.2-2.48 5.2-12.4 0-10.56-1.92-12.96-5.36-12.96-3.44 0-5.28 2.08-5.28 12.4 0 10.56 1.92 12.96 5.44 12.96zM339.6 214h26.56v-8.4l-5.84-1.12v-18.64c2.4-.96 4.96-1.28 8.88-1.28 1.52 0 3.04.16 3.92.4V170.4c-.56-.16-1.44-.24-2.16-.24-4.96 0-8.56 3.04-10.8 7.12h-.48v-6.64l-1.36-.64-19.04 1.84v8.56l4.56 1.28v22.8l-4.24 1.12v8.4z" id="the-tower-next-door"/><path d="M304.42 21h13.3l.336-4.9h-.7l-.588 4.088h-8.764V2.436l2.744-.224v-.616h-6.328v.616l2.492.224V20.16l-2.492.224V21zm14.644 0h5.656v-.56l-2.324-.196V6.776l-.14-.084-3.304.28v.588l2.436.196v12.488l-2.324.196V21zm2.688-17.78c.476 0 .812-.392.812-.812 0-.42-.336-.812-.812-.812-.476 0-.812.392-.812.812 0 .42.336.812.812.812zM325.56 21v-.56l2.24-.196V7.616h-2.268v-.56l2.268-.28V4.564c0-3.136 1.68-4.312 4.004-4.312.924 0 1.54.168 2.184.42v.644c-.644-.14-1.204-.252-1.932-.252-1.988 0-3.248.784-3.248 3.556v2.156h3.808v.84h-3.808v12.628l2.632.196V21h-5.88zm14.84.224c-4.984 0-6.496-3.276-6.496-7.364 0-4.76 2.576-7.308 5.992-7.308 3.528 0 5.516 2.408 5.516 6.86h-10.444c-.084 4.312 1.288 6.972 5.6 6.972 2.156 0 3.388-.532 4.368-1.008v.672c-.896.532-2.324 1.176-4.536 1.176zm-5.404-8.512l9.296-.112c-.056-3.556-1.652-5.292-4.452-5.292-2.884 0-4.62 2.072-4.844 5.404zM352.188 21h5.656v-.56l-2.324-.196V6.776l-.14-.084-3.304.28v.588l2.436.196v12.488l-2.324.196V21zm2.688-17.78c.476 0 .812-.392.812-.812 0-.42-.336-.812-.812-.812-.476 0-.812.392-.812.812 0 .42.336.812.812.812zm3.78 17.78h5.572v-.56l-2.324-.196V8.988c1.568-.84 3.332-1.54 5.152-1.54 2.352 0 3.332.98 3.332 3.108v9.688l-2.296.196V21h5.544v-.56l-2.24-.196v-9.996c0-2.52-1.372-3.696-3.976-3.696-1.96 0-3.864.784-5.488 1.736h-.056V6.776l-.14-.084-3.136.28v.588l2.296.196v12.488l-2.24.196V21zM245.34 49.196c.84 0 1.764-.28 2.352-.616v-.588c-.616.224-1.288.392-2.016.392-1.652 0-2.408-.616-2.408-2.52V35.616h4.088v-.84h-4.088V31.36h-.756l-.196 3.416-2.184.28v.56h2.128v10.472c0 2.268 1.26 3.108 3.08 3.108zM248.7 49h5.572v-.56l-2.324-.196V36.988c1.568-.84 3.332-1.54 5.152-1.54 2.352 0 3.332.98 3.332 3.108v9.688l-2.296.196V49h5.544v-.56l-2.24-.196v-9.996c0-2.52-1.372-3.696-3.976-3.696-1.96 0-3.836.784-5.46 1.708h-.056v-7.896l-.14-.084-3.304.28v.588l2.436.196v18.9l-2.24.196V49zm22.708.224c-4.984 0-6.496-3.276-6.496-7.364 0-4.76 2.576-7.308 5.992-7.308 3.528 0 5.516 2.408 5.516 6.86h-10.444c-.084 4.312 1.288 6.972 5.6 6.972 2.156 0 3.388-.532 4.368-1.008v.672c-.896.532-2.324 1.176-4.536 1.176zm-5.404-8.512l9.296-.112c-.056-3.556-1.652-5.292-4.452-5.292-2.884 0-4.62 2.072-4.844 5.404zm22.204 8.54c3.388 0 5.012-1.596 5.012-3.92 0-2.212-1.288-3.164-3.528-3.808l-1.876-.532c-2.184-.616-2.8-1.456-2.8-2.968 0-1.764 1.288-2.688 3.36-2.688 1.54 0 2.464.308 3.136.7l.364 2.044h.672l-.112-2.856c-.952-.392-2.128-.644-3.976-.644-2.856 0-4.48 1.512-4.48 3.668 0 1.932 1.232 3.052 3.36 3.64l1.876.532c2.128.588 2.94 1.288 2.94 3.108s-1.204 2.968-3.892 2.968c-1.456 0-2.548-.392-3.416-.84l-.392-2.324h-.672l.196 3.108c.952.392 2.324.812 4.228.812zm6.524-.252h5.572v-.56l-2.324-.196V36.988c1.568-.84 3.332-1.54 5.152-1.54 2.352 0 3.332.98 3.332 3.108v9.688l-2.296.196V49h5.544v-.56l-2.24-.196v-9.996c0-2.52-1.372-3.696-3.976-3.696-1.96 0-3.836.784-5.46 1.708h-.056v-7.896l-.14-.084-3.304.28v.588l2.436.196v18.9l-2.24.196V49zm20.44.252c-2.66 0-4.228-1.484-4.228-3.78 0-2.408 1.68-3.584 4.34-3.892l4.116-.476v-2.212c0-2.492-.784-3.416-3.248-3.416-1.568 0-2.856.28-4.256.7v-.728c1.12-.448 2.716-.896 4.452-.896 2.8 0 4.088 1.288 4.088 4.116v8.288c0 1.176.56 1.484 1.456 1.484.28 0 .756-.084.896-.112v.532c-.28.14-.84.308-1.4.308-1.148 0-1.82-.644-1.876-1.708h-.056c-1.036 1.092-2.464 1.792-4.284 1.792zm.28-.84c1.596 0 3.052-.672 3.948-1.764V42l-3.836.28c-2.604.196-3.556 1.288-3.556 3.052 0 2.044 1.176 3.08 3.444 3.08zm14.308.812c-2.996 0-5.852-1.68-5.852-7.112 0-5.236 2.772-7.56 6.636-7.56 1.876 0 2.996.476 3.948.896v-6.076l-2.604-.196v-.588l3.472-.28.14.084v19.712l2.24.196v.56l-3.052.28-.14-.112v-1.624h-.084c-1.288 1.008-2.716 1.82-4.704 1.82zm.28-.868c1.68 0 3.108-.84 4.452-1.708v-10.08c-1.064-.7-2.156-1.232-4.032-1.232-3.164 0-5.46 1.764-5.46 6.608 0 4.816 2.016 6.412 5.04 6.412zm15.512.896c-3.36 0-6.412-2.464-6.412-7.28 0-4.788 3.052-7.42 6.412-7.42s6.412 2.52 6.412 7.308-3.052 7.392-6.412 7.392zm0-.784c2.744 0 5.32-2.016 5.32-6.524 0-4.564-2.576-6.608-5.32-6.608-2.772 0-5.32 2.1-5.32 6.552 0 4.508 2.576 6.58 5.32 6.58zm13.076.532h.84l4.116-12.432h.056L367.644 49h.84l4.004-13.468 1.652-.168v-.588h-4.508v.588l1.988.168-3.472 11.816h-.056l-4.06-12.572h-.728l-4.116 12.572h-.056l-3.472-11.816 2.016-.168v-.588H353v.588l1.652.168L358.628 49zm-96.432 28.252c-3.36 0-6.412-2.464-6.412-7.28 0-4.788 3.052-7.42 6.412-7.42s6.412 2.52 6.412 7.308-3.052 7.392-6.412 7.392zm0-.784c2.744 0 5.32-2.016 5.32-6.524 0-4.564-2.576-6.608-5.32-6.608-2.772 0-5.32 2.1-5.32 6.552 0 4.508 2.576 6.58 5.32 6.58zm7.756.532h5.88v-.56l-2.632-.196V63.616h3.808v-.84H273.2V60.62c0-2.772 1.26-3.556 3.248-3.556.728 0 1.288.112 1.932.252v-.644c-.644-.252-1.26-.42-2.184-.42-2.324 0-4.004 1.176-4.004 4.312v2.212l-2.268.28v.56h2.268v12.628l-2.24.196V77zm23.1.308c2.464 0 4.088-.42 5.516-.924v-6.692l2.24-.224v-.616h-6.104v.616l2.744.224v6.076c-1.26.42-2.66.756-4.34.756-5.236 0-7.924-3.36-7.924-9.352 0-5.768 2.632-9.128 7.616-9.128 2.24 0 3.584.392 4.62.924l.504 3.164h.672l-.196-3.948c-1.12-.504-2.632-.896-5.488-.896-5.348 0-8.876 3.164-8.876 9.996 0 6.636 3.304 10.024 9.016 10.024zm8.736-.308h5.684v-.56l-2.436-.196V65.492c1.26-1.232 2.464-1.904 4.144-1.904.224 0 .7.028.98.084v-.924c-.168-.056-.644-.112-.868-.112-1.792 0-3.22.924-4.228 2.044h-.056v-1.904l-.14-.084-3.136.28v.588l2.296.196v12.488l-2.24.196V77zm16.408.224c-4.984 0-6.496-3.276-6.496-7.364 0-4.76 2.576-7.308 5.992-7.308 3.528 0 5.516 2.408 5.516 6.86h-10.444c-.084 4.312 1.288 6.972 5.6 6.972 2.156 0 3.388-.532 4.368-1.008v.672c-.896.532-2.324 1.176-4.536 1.176zm-5.404-8.512l9.296-.112c-.056-3.556-1.652-5.292-4.452-5.292-2.884 0-4.62 2.072-4.844 5.404zM324.524 77h5.572v-.56l-2.324-.196V64.988c1.568-.84 3.332-1.54 5.152-1.54 2.352 0 3.332.98 3.332 3.108v9.688l-2.296.196V77h5.544v-.56l-2.24-.196v-9.996c0-2.52-1.372-3.696-3.976-3.696-1.96 0-3.864.784-5.488 1.736h-.056v-1.512l-.14-.084-3.136.28v.588l2.296.196v12.488l-2.24.196V77zm15.792 0v-.56l2.24-.196V63.616h-2.268v-.56l2.268-.28v-2.212c0-3.136 1.68-4.312 4.004-4.312.924 0 1.54.168 2.184.42v.644c-.644-.14-1.204-.252-1.932-.252-1.988 0-3.248.784-3.248 3.556v2.156h3.808v.84h-3.808v12.628l2.632.196V77h-5.88zm14.84.224c-4.984 0-6.496-3.276-6.496-7.364 0-4.76 2.576-7.308 5.992-7.308 3.528 0 5.516 2.408 5.516 6.86h-10.444c-.084 4.312 1.288 6.972 5.6 6.972 2.156 0 3.388-.532 4.368-1.008v.672c-.896.532-2.324 1.176-4.536 1.176zm-5.404-8.512l9.296-.112c-.056-3.556-1.652-5.292-4.452-5.292-2.884 0-4.62 2.072-4.844 5.404zM361.484 77h5.684v-.56l-2.324-.196V56.392l-.14-.112-3.472.28v.588l2.576.196v18.9l-2.324.196V77zm6.468 0h5.684v-.56l-2.324-.196V56.392l-.14-.112-3.472.28v.588l2.576.196v18.9l-2.324.196V77z" id="Life-in-the-shadow-o"/></g></g></g></svg>