<svg width="126" height="247" viewBox="0 0 126 247" xmlns="http://www.w3.org/2000/svg"><title>desktop-type</title><g id="Assets" fill="none" fill-rule="evenodd"><g id="desktop-type" fill="#FFF"><g id="Group"><path d="M24.856 198h11.76l.312-4.728h-.864l-.864 3.72h-6.552v-14.544l2.328-.312v-.768h-6.12v.768l2.112.312v14.472l-2.112.312V198zm12.864 0h5.328v-.648l-1.896-.288v-11.352l-.192-.096-3.36.408v.72l1.992.264v10.056l-1.872.288V198zm2.544-14.88c.6 0 1.032-.48 1.032-1.008 0-.576-.432-1.032-1.032-1.032-.576 0-1.032.456-1.032 1.032 0 .528.456 1.008 1.032 1.008zM43.768 198v-.648l1.848-.288v-10.248h-1.824v-.648l1.824-.432v-1.632c0-2.904 1.656-3.984 3.744-3.984 1.032 0 1.632.216 2.136.48v.816c-.504-.12-.984-.216-1.704-.216-1.632 0-2.64.648-2.64 3v1.536h3.144v1.08h-3.144v10.248l2.184.288V198h-5.568zm13.176.24c-4.248 0-5.808-2.76-5.808-6.432 0-3.96 2.376-6.288 5.4-6.288 3.312 0 4.872 2.304 4.872 6.144h-8.664c.024 3.48 1.368 5.424 4.488 5.424 1.8 0 2.808-.384 3.672-.744v.816c-.768.456-1.992 1.08-3.96 1.08zm-4.176-7.488l6.912-.144c-.024-2.784-1.152-4.104-3.24-4.104-2.184 0-3.504 1.488-3.672 4.248zM67 198h5.328v-.648l-1.896-.288v-11.352l-.192-.096-3.36.408v.72l1.992.264v10.056l-1.872.288V198zm2.544-14.88c.6 0 1.032-.48 1.032-1.008 0-.576-.432-1.032-1.032-1.032-.576 0-1.032.456-1.032 1.032 0 .528.456 1.008 1.032 1.008zM72.952 198h5.28v-.648l-1.872-.288v-9.36c1.128-.504 2.352-.936 3.624-.936 1.848 0 2.712.672 2.712 2.424v7.872l-1.872.288V198h5.28v-.648l-1.872-.288v-8.304c0-2.304-1.176-3.24-3.432-3.24-1.584 0-3.12.624-4.416 1.392h-.096v-1.2l-.192-.096-3.144.408v.72l1.872.264v10.056l-1.872.288V198zm22.992.192c.864 0 1.752-.312 2.256-.624v-.696c-.504.144-1.056.24-1.632.24-1.464 0-1.992-.576-1.992-2.064v-8.232h3.36v-1.08h-3.36v-2.904h-1.152l-.288 2.904-1.896.432v.648h1.8v8.544c0 2.112 1.056 2.832 2.904 2.832zm3.072-.192h5.28v-.648l-1.872-.288v-9.36c1.128-.504 2.352-.936 3.624-.936 1.848 0 2.712.672 2.712 2.424v7.872l-1.872.288V198h5.28v-.648l-1.872-.288v-8.304c0-2.304-1.176-3.24-3.432-3.24-1.584 0-3.096.624-4.392 1.368h-.096v-6.648l-.192-.096-3.24.408v.696l1.944.288v15.528l-1.872.288V198zm19.848.24c-4.248 0-5.808-2.76-5.808-6.432 0-3.96 2.376-6.288 5.4-6.288 3.312 0 4.872 2.304 4.872 6.144h-8.664c.024 3.48 1.368 5.424 4.488 5.424 1.8 0 2.808-.384 3.672-.744v.816c-.768.456-1.992 1.08-3.96 1.08zm-4.176-7.488l6.912-.144c-.024-2.784-1.152-4.104-3.24-4.104-2.184 0-3.504 1.488-3.672 4.248zm-65.4 31.512c3.048 0 4.536-1.536 4.536-3.576 0-1.824-.96-2.736-3.024-3.384l-1.464-.432c-1.824-.552-2.4-1.152-2.4-2.328 0-1.392 1.056-2.016 2.616-2.016 1.128 0 1.824.216 2.304.504l.456 1.824h.84l-.048-2.808c-.816-.288-1.944-.504-3.408-.504-2.712 0-4.152 1.488-4.152 3.36 0 1.752 1.056 2.736 2.928 3.288l1.464.456c1.776.528 2.424 1.032 2.424 2.424 0 1.416-1.056 2.208-2.952 2.208-1.176 0-2.064-.312-2.664-.624l-.48-2.064h-.888l.192 3c.96.336 2.256.672 3.72.672zm5.64-.264h5.28v-.648l-1.872-.288v-9.36c1.128-.504 2.352-.936 3.624-.936 1.848 0 2.712.672 2.712 2.424v7.872l-1.872.288V222h5.28v-.648l-1.872-.288v-8.304c0-2.304-1.176-3.24-3.432-3.24-1.584 0-3.096.624-4.392 1.368h-.096v-6.648l-.192-.096-3.24.408v.696l1.944.288v15.528l-1.872.288V222zm17.64.264c-2.232 0-3.696-1.272-3.696-3.312 0-2.088 1.488-2.952 3.744-3.312l3.336-.528v-1.584c0-2.04-.48-2.76-2.76-2.76-1.176 0-2.424.192-3.384.432v-.84c.936-.408 2.496-.84 4.008-.84 2.544 0 3.696 1.128 3.696 3.576v7.104c0 .888.456 1.08 1.2 1.08.144 0 .624-.024.696-.048v.648c-.264.144-.912.312-1.584.312-.984 0-1.584-.456-1.704-1.368h-.096c-.768.816-1.896 1.44-3.456 1.44zm.528-1.104c1.152 0 2.256-.528 2.856-1.2v-3.744l-2.856.216c-1.944.144-2.616.984-2.616 2.352 0 1.512.864 2.376 2.616 2.376zm12.288 1.08c-2.424 0-5.112-1.416-5.112-6.12 0-4.536 2.448-6.6 6-6.6 1.272 0 2.088.288 2.832.552v-4.488l-2.112-.288v-.696l3.456-.408.192.096v16.56l1.872.288v.648l-3.12.408-.192-.12v-1.32h-.12c-.864.84-2.016 1.488-3.696 1.488zm.456-1.224c1.296 0 2.424-.552 3.264-1.08v-8.496c-.72-.48-1.464-.912-3-.912-2.472 0-4.224 1.344-4.224 5.376 0 3.768 1.536 5.112 3.96 5.112zm13.488 1.248c-3.216 0-5.712-2.328-5.712-6.312 0-3.984 2.616-6.432 5.688-6.432 3.192 0 5.712 2.352 5.712 6.312 0 3.984-2.64 6.432-5.688 6.432zm.024-1.008c2.064 0 4.032-1.464 4.032-5.28 0-3.912-2.016-5.448-4.104-5.448s-4.032 1.488-4.032 5.304c0 3.864 1.992 5.424 4.104 5.424zm11.088.744h1.176l3.312-9.912h.048L118.12 222h1.176l3.432-11.304 1.344-.264v-.696h-4.104v.696l1.608.264-2.64 9.096h-.072l-3.24-10.056h-1.032l-3.264 10.056h-.072l-2.688-9.096 1.632-.264v-.696h-4.512v.696l1.344.264L110.44 222zm-84.576 24.264c-3.216 0-5.712-2.328-5.712-6.312 0-3.984 2.616-6.432 5.688-6.432 3.192 0 5.712 2.352 5.712 6.312 0 3.984-2.64 6.432-5.688 6.432zm.024-1.008c2.064 0 4.032-1.464 4.032-5.28 0-3.912-2.016-5.448-4.104-5.448s-4.032 1.488-4.032 5.304c0 3.864 1.992 5.424 4.104 5.424zm6.72.744h5.568v-.648l-2.184-.288v-10.248h3.144v-1.08h-3.144V232.2c0-2.352 1.008-3 2.64-3 .72 0 1.2.096 1.704.216v-.816c-.504-.264-1.104-.48-2.136-.48-2.088 0-3.744 1.08-3.744 3.984v1.632l-1.824.432v.648h1.824v10.248l-1.848.288V246zm20.112.288c1.968 0 3.504-.312 4.8-.768v-5.736l1.848-.312v-.744h-5.832v.744l2.28.312v4.92c-.864.288-1.872.552-3.168.552-4.224 0-6.168-2.76-6.168-7.776 0-4.656 2.04-7.392 6-7.392 1.632 0 2.712.312 3.504.72l.72 2.712h.864l-.192-3.744c-.984-.384-2.424-.696-4.728-.696-4.368 0-7.944 2.448-7.944 8.712 0 5.856 2.976 8.496 8.016 8.496zm7.296-.288h5.448v-.648l-2.04-.288v-8.88c.936-.792 1.944-1.224 3.24-1.224.216 0 .624.024.888.072v-1.368c-.12-.048-.504-.096-.696-.096-1.44 0-2.616.84-3.408 1.752h-.096v-1.608l-.192-.096-3.144.408v.72l1.872.264v10.056l-1.872.288V246zm14.4.24c-4.248 0-5.808-2.76-5.808-6.432 0-3.96 2.376-6.288 5.4-6.288 3.312 0 4.872 2.304 4.872 6.144h-8.664c.024 3.48 1.368 5.424 4.488 5.424 1.8 0 2.808-.384 3.672-.744v.816c-.768.456-1.992 1.08-3.96 1.08zm-4.176-7.488l6.912-.144c-.024-2.784-1.152-4.104-3.24-4.104-2.184 0-3.504 1.488-3.672 4.248zM79.864 246h5.28v-.648l-1.872-.288v-9.36c1.128-.504 2.352-.936 3.624-.936 1.848 0 2.712.672 2.712 2.424v7.872l-1.872.288V246h5.28v-.648l-1.872-.288v-8.304c0-2.304-1.176-3.24-3.432-3.24-1.584 0-3.12.624-4.416 1.392H83.2v-1.2l-.192-.096-3.144.408v.72l1.872.264v10.056l-1.872.288V246zm13.824 0v-.648l1.848-.288v-10.248h-1.824v-.648l1.824-.432v-1.632c0-2.904 1.656-3.984 3.744-3.984 1.032 0 1.632.216 2.136.48v.816c-.504-.12-.984-.216-1.704-.216-1.632 0-2.64.648-2.64 3v1.536h3.144v1.08h-3.144v10.248l2.184.288V246h-5.568zm13.176.24c-4.248 0-5.808-2.76-5.808-6.432 0-3.96 2.376-6.288 5.4-6.288 3.312 0 4.872 2.304 4.872 6.144h-8.664c.024 3.48 1.368 5.424 4.488 5.424 1.8 0 2.808-.384 3.672-.744v.816c-.768.456-1.992 1.08-3.96 1.08zm-4.176-7.488l6.912-.144c-.024-2.784-1.152-4.104-3.24-4.104-2.184 0-3.504 1.488-3.672 4.248zm9.648 7.248h5.352v-.648l-1.896-.288v-16.8l-.192-.12-3.432.408v.72l2.064.264v15.528l-1.896.288V246zm6 0h5.352v-.648l-1.896-.288v-16.8l-.192-.12-3.432.408v.72l2.064.264v15.528l-1.896.288V246z" id="Life-in-the-shadow-o"/><path d="M65.984 34.528c2.728 0 4.84-.616 5.94-1.276v-4.84c-.572.176-1.32.308-2.024.308-1.716 0-2.684-.484-2.684-2.42V15.608h4.488v-5.324h-4.488V4.74h-7.172l-1.056 5.456-3.168 1.232v4.18h2.332v12.144c0 5.148 2.86 6.776 7.832 6.776zM73.508 34h12.936v-4.62l-1.54-.44V17.104c.748-.264 1.452-.484 2.42-.484 1.54 0 2.244.572 2.244 2.156V28.94l-1.54.44V34h12.716v-4.62l-2.112-.616V15.52c0-4.092-2.596-5.764-6.028-5.764-3.388 0-5.368 1.188-7.48 2.904h-.22V1.352l-.792-.396-10.78 1.056v4.664l2.508.704v21.384l-2.332.616V34zm41.272.572c-8.36 0-12.892-4.312-12.892-12.452 0-7.832 4.752-12.364 12.276-12.364 7.392 0 11.044 3.388 11.044 13.948h-13.904c.484 3.652 2.508 4.708 6.028 4.708 3.036 0 5.104-.528 6.776-1.056v4.84c-1.76 1.188-4.62 2.376-9.328 2.376zm-.704-19.492c-1.364 0-2.508.792-2.816 4.488l5.324-.22c0-3.432-1.144-4.268-2.508-4.268zM10.456 78.528c2.728 0 4.84-.616 5.94-1.276v-4.84c-.572.176-1.32.308-2.024.308-1.716 0-2.684-.484-2.684-2.42V59.608h4.488v-5.324h-4.488V48.74H4.516L3.46 54.196.292 55.428v4.18h2.332v12.144c0 5.148 2.86 6.776 7.832 6.776zm20.02.044c-8.184 0-12.496-4.708-12.496-12.276 0-8.316 5.5-12.54 12.496-12.54 8.184 0 12.496 4.4 12.496 12.232 0 8.316-5.544 12.584-12.496 12.584zm.044-5.456c1.892 0 2.86-1.364 2.86-6.82 0-5.808-1.056-7.128-2.948-7.128s-2.904 1.144-2.904 6.82c0 5.808 1.056 7.128 2.992 7.128zM51.024 78h8.008l3.52-12.32h.132L66.204 78h7.92l5.456-18.524 1.672-.572v-4.62H71.22v4.62l1.628.484-1.936 8.14h-.176l-3.828-13.244h-6.336l-3.828 13.244h-.176l-1.98-8.14 1.716-.484v-4.62H43.896v4.62l1.672.572L51.024 78zm44.22.572c-8.36 0-12.892-4.312-12.892-12.452 0-7.832 4.752-12.364 12.276-12.364 7.392 0 11.044 3.388 11.044 13.948H91.768c.484 3.652 2.508 4.708 6.028 4.708 3.036 0 5.104-.528 6.776-1.056v4.84c-1.76 1.188-4.62 2.376-9.328 2.376zM94.54 59.08c-1.364 0-2.508.792-2.816 4.488l5.324-.22c0-3.432-1.144-4.268-2.508-4.268zM107.08 78h14.608v-4.62l-3.212-.616V62.512c1.32-.528 2.728-.704 4.884-.704.836 0 1.672.088 2.156.22V54.02c-.308-.088-.792-.132-1.188-.132-2.728 0-4.708 1.672-5.94 3.916h-.264v-3.652l-.748-.352-10.472 1.012v4.708l2.508.704v12.54l-2.332.616V78zm-78.76 44h12.936v-4.62l-1.54-.44v-11.836c.748-.264 1.452-.484 2.42-.484 1.54 0 2.244.572 2.244 2.156v10.164l-1.54.44V122h12.716v-4.62l-2.112-.616V103.52c0-4.092-2.596-5.764-6.028-5.764-3.388 0-5.544 1.188-7.788 3.036h-.264v-2.64l-.748-.352-10.472 1.012v4.708l2.508.704v12.54l-2.332.616V122zm41.316.572c-8.36 0-12.892-4.312-12.892-12.452 0-7.832 4.752-12.364 12.276-12.364 7.392 0 11.044 3.388 11.044 13.948H66.16c.484 3.652 2.508 4.708 6.028 4.708 3.036 0 5.104-.528 6.776-1.056v4.84c-1.76 1.188-4.62 2.376-9.328 2.376zm-.704-19.492c-1.364 0-2.508.792-2.816 4.488l5.324-.22c0-3.432-1.144-4.268-2.508-4.268zM81.604 122h10.428v-4.62l-1.672-.44 2.464-3.52h.132l2.508 3.52-1.628.44V122h14.08v-4.62l-1.892-.572-4.84-6.204 5.148-7.172 1.408-.528v-4.62h-9.724v4.62l1.628.44-2.376 3.696h-.176l-2.376-3.696 1.628-.44v-4.62h-14.3v4.62l1.98.616 4.972 6.38-5.456 6.908-1.936.572V122zm37.488.528c2.728 0 4.84-.616 5.94-1.276v-4.84c-.572.176-1.32.308-2.024.308-1.716 0-2.684-.484-2.684-2.42v-10.692h4.488v-5.324h-4.488V92.74h-7.172l-1.056 5.456-3.168 1.232v4.18h2.332v12.144c0 5.148 2.86 6.776 7.832 6.776zm-83.116 44c-4.444 0-9.064-2.772-9.064-11.792 0-9.724 5.148-12.98 11.352-12.98 1.848 0 2.816.308 3.74.704v-3.036l-2.552-.704v-4.708L50.276 133l.792.352v26.708l2.332.704v4.62l-9.68 1.056-.748-.352v-2.244h-.264c-1.276 1.628-3.74 2.684-6.732 2.684zm3.608-6.292c1.012 0 1.76-.22 2.42-.616v-11.616c-.528-.396-1.056-.704-2.156-.704-2.068 0-3.388 1.144-3.388 6.512 0 4.928 1.1 6.424 3.124 6.424zm27.544 6.336c-8.184 0-12.496-4.708-12.496-12.276 0-8.316 5.5-12.54 12.496-12.54 8.184 0 12.496 4.4 12.496 12.232 0 8.316-5.544 12.584-12.496 12.584zm.044-5.456c1.892 0 2.86-1.364 2.86-6.82 0-5.808-1.056-7.128-2.948-7.128s-2.904 1.144-2.904 6.82c0 5.808 1.056 7.128 2.992 7.128zm26.18 5.456c-8.184 0-12.496-4.708-12.496-12.276 0-8.316 5.5-12.54 12.496-12.54 8.184 0 12.496 4.4 12.496 12.232 0 8.316-5.544 12.584-12.496 12.584zm.044-5.456c1.892 0 2.86-1.364 2.86-6.82 0-5.808-1.056-7.128-2.948-7.128s-2.904 1.144-2.904 6.82c0 5.808 1.056 7.128 2.992 7.128zM107.08 166h14.608v-4.62l-3.212-.616v-10.252c1.32-.528 2.728-.704 4.884-.704.836 0 1.672.088 2.156.22v-8.008c-.308-.088-.792-.132-1.188-.132-2.728 0-4.708 1.672-5.94 3.916h-.264v-3.652l-.748-.352-10.472 1.012v4.708l2.508.704v12.54l-2.332.616V166z" id="the-tower-next-door"/></g></g></g></svg>