<svg width="300" height="159" viewBox="0 0 300 159" xmlns="http://www.w3.org/2000/svg"><title>floor-14-type-horizontal</title><g id="Assets" fill="none" fill-rule="evenodd"><g id="floor-14-type-horizontal" fill="#EAEAEA"><g id="floor-14"><path d="M144.64 62h23.44v-8.4l-4.16-.8V2.64L162.56 2l-11.92 1.84c-2.8-.8-7.2-1.76-11.68-1.76-9.04 0-16.96 3.2-16.96 13.52v3.6l-4.48 1.76v7.6H122v23.92l-4.24 1.12V62h23.52v-8.4l-2.8-.8V28.56h5.68v-9.68h-5.68v-1.6c0-3.44 1.6-4.24 4.96-4.24 1.6 0 2.8.24 4 .56v39.2l-2.8.8V62zm48.32 1.04c-14.88 0-22.72-8.56-22.72-22.32 0-15.12 10-22.8 22.72-22.8 14.88 0 22.72 8 22.72 22.24 0 15.12-10.08 22.88-22.72 22.88zm.08-9.92c3.44 0 5.2-2.48 5.2-12.4 0-10.56-1.92-12.96-5.36-12.96-3.44 0-5.28 2.08-5.28 12.4 0 10.56 1.92 12.96 5.44 12.96zm47.6 9.92c-14.88 0-22.72-8.56-22.72-22.32 0-15.12 10-22.8 22.72-22.8 14.88 0 22.72 8 22.72 22.24 0 15.12-10.08 22.88-22.72 22.88zm.08-9.92c3.44 0 5.2-2.48 5.2-12.4 0-10.56-1.92-12.96-5.36-12.96-3.44 0-5.28 2.08-5.28 12.4 0 10.56 1.92 12.96 5.44 12.96zM265.6 62h26.56v-8.4l-5.84-1.12V33.84c2.4-.96 4.96-1.28 8.88-1.28 1.52 0 3.04.16 3.92.4V18.4c-.56-.16-1.44-.24-2.16-.24-4.96 0-8.56 3.04-10.8 7.12h-.48v-6.64l-1.36-.64-19.04 1.84v8.56l4.56 1.28v22.8l-4.24 1.12V62zM218 142h31.84v-8.88l-6.64-1.36V86.08h-9.28l-16.48 8.16v8.88l7.44-.48v29.12l-6.88 1.36V142zm51.92 0v-8.88l5.6-1.2v-6H252.4v-8.32l25.76-31.12h15.04v30.08h5.12v9.36h-5.12v6l5.12 1.2V142h-28.4zm-5.28-25.44h10.88v-13.2h-.32l-10.56 12.96v.24z"/></g></g></g></svg>