<svg width="300" height="159" viewBox="0 0 300 159" xmlns="http://www.w3.org/2000/svg"><title>floor-14-type-horizontal</title><g id="Assets" fill="none" fill-rule="evenodd"><g id="floor-14-type-horizontal" fill="#EAEAEA"><g id="a-landing"><path d="M190.88 62.96c4.96 0 8.8-1.12 10.8-2.32v-8.8c-1.04.32-2.4.56-3.68.56-3.12 0-4.88-.88-4.88-4.4V28.56h8.16v-9.68h-8.16V8.8h-13.04l-1.92 9.92-5.76 2.24v7.6h4.24v22.08c0 9.36 5.2 12.32 14.24 12.32zm13.68-.96h23.52v-8.4l-2.8-.8V31.28c1.36-.48 2.64-.88 4.4-.88 2.8 0 4.08 1.04 4.08 3.92V52.8l-2.8.8V62h23.12v-8.4l-3.84-1.12V28.4c0-7.44-4.72-10.48-10.96-10.48-6.16 0-9.76 2.16-13.6 5.28h-.4V2.64l-1.44-.72-19.6 1.92v8.48l4.56 1.28v38.88l-4.24 1.12V62zm75.04 1.04c-15.2 0-23.44-7.84-23.44-22.64 0-14.24 8.64-22.48 22.32-22.48 13.44 0 20.08 6.16 20.08 25.36h-25.28c.88 6.64 4.56 8.56 10.96 8.56 5.52 0 9.28-.96 12.32-1.92v8.8c-3.2 2.16-8.4 4.32-16.96 4.32zm-1.28-35.44c-2.48 0-4.56 1.44-5.12 8.16l9.68-.4c0-6.24-2.08-7.76-4.56-7.76zM1.12 142h25.04v-8.4L22 132.48V82.64L20.64 82 .72 83.84v8.48l4.8 1.36v38.8l-4.4 1.12v8.4zm39.68 1.04c-7.84 0-12.72-4.96-12.72-11.84 0-8.64 6.08-11.44 16.32-13.28l6.72-1.28v-1.52c0-3.76-1.76-5.28-7.68-5.28-3.92 0-8.16.32-11.12.8v-9.68c4.32-1.52 11.12-3.04 18.88-3.04 11.28 0 16.4 4.72 16.4 14.48v17.92c0 1.84 1.2 2.48 2.64 2.48h1.12v8c-1.6 1.04-5.44 2.24-9.12 2.24-4.96 0-7.92-1.52-9.28-5.2h-.4c-2.16 2.88-6.32 5.2-11.76 5.2zm7.12-9.36c1.36 0 2.56-.64 3.2-1.28v-8.56l-2.64.08c-2.72.16-4.08 1.6-4.08 4.96 0 3.44.96 4.8 3.52 4.8zM73.44 142h23.52v-8.4l-2.8-.8v-21.52c1.36-.48 2.64-.88 4.4-.88 2.8 0 4.08 1.04 4.08 3.92v18.48l-2.8.8v8.4h23.12v-8.4l-3.84-1.12V108.4c0-7.44-4.72-10.48-10.96-10.48-6.16 0-10.08 2.16-14.16 5.52h-.48v-4.8L92.16 98l-19.04 1.84v8.56l4.56 1.28v22.8l-4.24 1.12v8.4zm68.48.96c-8.08 0-16.48-5.04-16.48-21.44 0-17.68 9.36-23.6 20.64-23.6 3.36 0 5.12.56 6.8 1.28v-5.52l-4.64-1.28v-8.56L167.92 82l1.44.64v48.56l4.24 1.28v8.4L156 142.8l-1.36-.64v-4.08h-.48c-2.32 2.96-6.8 4.88-12.24 4.88zm6.56-11.44c1.84 0 3.2-.4 4.4-1.12v-21.12c-.96-.72-1.92-1.28-3.92-1.28-3.76 0-6.16 2.08-6.16 11.84 0 8.96 2 11.68 5.68 11.68zM175.84 142h24.64v-8.4l-3.92-1.12V98.64l-1.44-.64-19.68 1.84v8.56l4.64 1.28v22.8l-4.24 1.12v8.4zm12.08-45.6c4.96 0 8.96-2.88 8.96-7.84s-4-7.84-8.96-7.84c-4.88 0-8.96 2.88-8.96 7.84s4.08 7.84 8.96 7.84zm14.72 45.6h23.52v-8.4l-2.8-.8v-21.52c1.36-.48 2.64-.88 4.4-.88 2.8 0 4.08 1.04 4.08 3.92v18.48l-2.8.8v8.4h23.12v-8.4l-3.84-1.12V108.4c0-7.44-4.72-10.48-10.96-10.48-6.16 0-10.08 2.16-14.16 5.52h-.48v-4.8l-1.36-.64-19.04 1.84v8.56l4.56 1.28v22.8l-4.24 1.12v8.4zm71.52 16.24c-14 0-21.12-3.76-21.12-9.68 0-4.88 4.4-7.36 9.2-8.48v-.4c-4-1.12-5.84-3.6-5.84-7.2s2.88-7.04 6.32-9.2c-4-2.16-6.72-5.84-6.72-10.8 0-9.36 7.84-14.48 19.6-14.48 3.68 0 6.72.48 9.28 1.28l14.08-2v9.44l-5.28-.16c.88 1.6 1.44 3.2 1.44 5.04 0 9.36-7.52 14.56-19.52 14.56-2.08 0-3.84-.16-5.6-.48-.48.56-.64 1.28-.64 1.92 0 .88.64 2.08 2.88 2.08h13.92c7.6 0 13.44 3.44 13.44 12 0 9.04-7.12 16.56-25.44 16.56zm1.2-9.04c6.8 0 9.04-1.76 9.04-3.84 0-2-1.12-2.56-4.56-2.56h-9.28c-1.36.56-2.32 1.44-2.32 3.12 0 1.92 1.84 3.28 7.12 3.28zm.24-30.96c2.32 0 4.24-1.36 4.24-6.08 0-5.28-1.84-6.24-4.24-6.24-2.32 0-4.16 1.28-4.16 6 0 4.96 1.84 6.32 4.16 6.32z" id="the-landing"/></g></g></g></svg>