<svg width="300" height="159" viewBox="0 0 300 159" xmlns="http://www.w3.org/2000/svg"><title>floor-14-type-horizontal</title><g id="Assets" fill="none" fill-rule="evenodd"><g id="floor-14-type-horizontal" fill="#EAEAEA"><g id="maxilla-social-club"><path d="M4 62h23.36v-8.4l-2.64-.8V31.28c1.36-.56 2.32-.88 4.16-.88 2.72 0 3.76 1.04 3.76 4.08V52.8l-2.56.8V62h21.68v-8.4l-2.64-.8V32.72c0-.4-.08-1.28-.08-1.44 1.36-.56 2.56-.88 4.08-.88 2.88 0 3.92 1.04 3.92 4.08V52.8l-2.56.8V62h22.8v-8.4l-3.76-1.12V28.56c0-7.44-5.04-10.64-11.04-10.64-6.08 0-10.72 2.48-14.16 5.68h-.4c-1.68-3.92-5.36-5.68-9.76-5.68-6.08 0-10 2.16-13.6 5.28h-.48v-4.56L22.72 18 3.68 19.84v8.56l4.56 1.28v22.8L4 53.6V62zm87.92 1.04c-7.84 0-12.72-4.96-12.72-11.84 0-8.64 6.08-11.44 16.32-13.28l6.72-1.28v-1.52c0-3.76-1.76-5.28-7.68-5.28-3.92 0-8.16.32-11.12.8v-9.68c4.32-1.52 11.12-3.04 18.88-3.04 11.28 0 16.4 4.72 16.4 14.48v17.92c0 1.84 1.2 2.48 2.64 2.48h1.12v8c-1.6 1.04-5.44 2.24-9.12 2.24-4.96 0-7.92-1.52-9.28-5.2h-.4c-2.16 2.88-6.32 5.2-11.76 5.2zm7.12-9.36c1.36 0 2.56-.64 3.2-1.28v-8.56l-2.64.08c-2.72.16-4.08 1.6-4.08 4.96 0 3.44.96 4.8 3.52 4.8zM124.8 62h18.96v-8.4l-3.04-.8 4.48-6.4h.24l4.56 6.4-2.96.8V62h25.6v-8.4l-3.44-1.04-8.8-11.28 9.36-13.04 2.56-.96v-8.4h-17.68v8.4l2.96.8-4.32 6.72h-.32l-4.32-6.72 2.96-.8v-8.4h-26v8.4l3.6 1.12 9.04 11.6-9.92 12.56-3.52 1.04V62zm50 0h24.64v-8.4l-3.92-1.12V18.64l-1.44-.64-19.68 1.84v8.56l4.64 1.28v22.8l-4.24 1.12V62zm12.08-45.6c4.96 0 8.96-2.88 8.96-7.84s-4-7.84-8.96-7.84c-4.88 0-8.96 2.88-8.96 7.84s4.08 7.84 8.96 7.84zM201.6 62h25.04v-8.4l-4.16-1.12V2.64L221.12 2 201.2 3.84v8.48l4.8 1.36v38.8l-4.4 1.12V62zm27.2 0h25.04v-8.4l-4.16-1.12V2.64L248.32 2 228.4 3.84v8.48l4.8 1.36v38.8l-4.4 1.12V62zm39.68 1.04c-7.84 0-12.72-4.96-12.72-11.84 0-8.64 6.08-11.44 16.32-13.28l6.72-1.28v-1.52c0-3.76-1.76-5.28-7.68-5.28-3.92 0-8.16.32-11.12.8v-9.68c4.32-1.52 11.12-3.04 18.88-3.04 11.28 0 16.4 4.72 16.4 14.48v17.92c0 1.84 1.2 2.48 2.64 2.48h1.12v8c-1.6 1.04-5.44 2.24-9.12 2.24-4.96 0-7.92-1.52-9.28-5.2h-.4c-2.16 2.88-6.32 5.2-11.76 5.2zm7.12-9.36c1.36 0 2.56-.64 3.2-1.28v-8.56l-2.64.08c-2.72.16-4.08 1.6-4.08 4.96 0 3.44.96 4.8 3.52 4.8zm-121.2 89.36c7.44 0 12.56-2.16 15.12-4v-8.96c-2.24.88-6 1.68-9.76 1.68-7.12 0-10.88-2.88-10.88-12.32 0-8.96 2.32-11.68 6.16-11.68 1.6 0 2.16.32 2.72.56l.96 5.52h10.64V99.68c-2.48-.88-8.08-1.76-13.68-1.76-14.88 0-24.32 7.12-24.32 22.8 0 13.84 7.28 22.32 23.04 22.32zm18.64-1.04h25.04v-8.4l-4.16-1.12V82.64l-1.36-.64-19.92 1.84v8.48l4.8 1.36v38.8l-4.4 1.12v8.4zm43.28.96c6 0 9.92-2.56 12.64-5.44h.48v4.64l1.44.64 18.72-1.92v-8.4l-4.24-1.28V98.72l-1.44-.72-18.88 1.76v8.48l3.84 1.36v20c-1.2.48-2.48.96-4.56.96-2.96 0-4-1.28-4-4.16V98.72l-1.36-.72-19.2 1.76v8.48l4.08 1.36v21.6c0 7.44 3.52 11.76 12.48 11.76zm58.4.08c-8.8 0-16.16-1.76-20.08-4.08V94l-4.16-1.28v-8.96l19.2-1.84 1.44.64v19.76h.48c2.32-2 5.84-4.48 11.6-4.48 7.68 0 15.36 4.88 15.36 20.88 0 18.08-9.76 24.32-23.84 24.32zm.32-9.84c4 0 6.16-2.16 6.16-12.56 0-8.4-1.76-11.12-5.52-11.12-2.08 0-3.44.4-4.56 1.04V132c.88.64 1.84 1.2 3.92 1.2z" id="maxilla-club"/></g></g></g></svg>