<svg width="300" height="159" viewBox="0 0 300 159" xmlns="http://www.w3.org/2000/svg"><title>floor-14-type-horizontal</title><g id="Assets" fill="none" fill-rule="evenodd"><g id="floor-14-type-horizontal" fill="#EAEAEA"><g id="postscript"><path d="M63.92 62h14.56l6.4-22.4h.24l6.4 22.4h14.4l9.92-33.68 3.04-1.04v-8.4h-18.24v8.4l2.96.88-3.52 14.8h-.32L92.8 18.88H81.28l-6.96 24.08H74l-3.6-14.8 3.12-.88v-8.4H50.96v8.4L54 28.32 63.92 62zm80.4 1.04c-15.2 0-23.44-7.84-23.44-22.64 0-14.24 8.64-22.48 22.32-22.48 13.44 0 20.08 6.16 20.08 25.36H138c.88 6.64 4.56 8.56 10.96 8.56 5.52 0 9.28-.96 12.32-1.92v8.8c-3.2 2.16-8.4 4.32-16.96 4.32zm-1.28-35.44c-2.48 0-4.56 1.44-5.12 8.16l9.68-.4c0-6.24-2.08-7.76-4.56-7.76zm46.24 35.44c-15.2 0-23.44-7.84-23.44-22.64 0-14.24 8.64-22.48 22.32-22.48 13.44 0 20.08 6.16 20.08 25.36h-25.28c.88 6.64 4.56 8.56 10.96 8.56 5.52 0 9.28-.96 12.32-1.92v8.8c-3.2 2.16-8.4 4.32-16.96 4.32zM188 27.6c-2.48 0-4.56 1.44-5.12 8.16l9.68-.4c0-6.24-2.08-7.76-4.56-7.76zm43.52-24.96l-1.44-.72-19.6 1.92v8.48l4.56 1.28v38.88l-4.24 1.12V62h23.84v-8.4l-3.12-.8v-6l2-.48L243.36 62h15.44v-8.4l-2.64-.72-10.8-16 8.32-8.48 3.76-1.12v-8.4h-20.48v8.4l3.92.96-9.36 9.2V2.64zm46 60.4c15.12 0 21.2-6.16 21.2-15.76 0-6.64-3.52-11.2-12.4-12.96l-5.36-1.12c-3.92-.8-5.28-1.52-5.28-3.44 0-2 2.24-2.8 4.96-2.8 2.16 0 3.52.48 4.4.96l.8 3.76H296V20.4c-3.68-1.68-9.44-2.56-14.88-2.56-14.08 0-20.16 6.16-20.16 14.96 0 7.92 4.4 11.76 12.72 13.44l4.72 1.04c3.28.72 4.48 1.36 4.48 3.28 0 2-1.76 3.2-4.88 3.2-2.24 0-4.08-.64-4.96-1.2l-1.44-4.08h-10.4l.72 11.84c4.56 1.84 10.64 2.72 15.6 2.72zM116.48 142h25.04v-8.4l-4.16-1.12V82.64L136 82l-19.92 1.84v8.48l4.8 1.36v38.8l-4.4 1.12v8.4zm39.68 1.04c-7.84 0-12.72-4.96-12.72-11.84 0-8.64 6.08-11.44 16.32-13.28l6.72-1.28v-1.52c0-3.76-1.76-5.28-7.68-5.28-3.92 0-8.16.32-11.12.8v-9.68c4.32-1.52 11.12-3.04 18.88-3.04 11.28 0 16.4 4.72 16.4 14.48v17.92c0 1.84 1.2 2.48 2.64 2.48h1.12v8c-1.6 1.04-5.44 2.24-9.12 2.24-4.96 0-7.92-1.52-9.28-5.2h-.4c-2.16 2.88-6.32 5.2-11.76 5.2zm7.12-9.36c1.36 0 2.56-.64 3.2-1.28v-8.56l-2.64.08c-2.72.16-4.08 1.6-4.08 4.96 0 3.44.96 4.8 3.52 4.8zm43.68 9.28c4.96 0 8.8-1.12 10.8-2.32v-8.8c-1.04.32-2.4.56-3.68.56-3.12 0-4.88-.88-4.88-4.4v-19.44h8.16v-9.68h-8.16V88.8h-13.04l-1.92 9.92-5.76 2.24v7.6h4.24v22.08c0 9.36 5.2 12.32 14.24 12.32zm37.12.08c-15.2 0-23.44-7.84-23.44-22.64 0-14.24 8.64-22.48 22.32-22.48 13.44 0 20.08 6.16 20.08 25.36h-25.28c.88 6.64 4.56 8.56 10.96 8.56 5.52 0 9.28-.96 12.32-1.92v8.8c-3.2 2.16-8.4 4.32-16.96 4.32zm-1.28-35.44c-2.48 0-4.56 1.44-5.12 8.16l9.68-.4c0-6.24-2.08-7.76-4.56-7.76zm22.8 34.4h26.56v-8.4l-5.84-1.12v-18.64c2.4-.96 4.96-1.28 8.88-1.28 1.52 0 3.04.16 3.92.4V98.4c-.56-.16-1.44-.24-2.16-.24-4.96 0-8.56 3.04-10.8 7.12h-.48v-6.64l-1.36-.64-19.04 1.84v8.56l4.56 1.28v22.8l-4.24 1.12v8.4z" id="weeks-later"/></g></g></g></svg>