<svg width="300" height="159" viewBox="0 0 300 159" xmlns="http://www.w3.org/2000/svg"><title>floor-14-type-horizontal</title><g id="Assets" fill="none" fill-rule="evenodd"><g id="floor-14-type-horizontal" fill="#EAEAEA"><g id="the-allotment"><path d="M190.88 62.96c4.96 0 8.8-1.12 10.8-2.32v-8.8c-1.04.32-2.4.56-3.68.56-3.12 0-4.88-.88-4.88-4.4V28.56h8.16v-9.68h-8.16V8.8h-13.04l-1.92 9.92-5.76 2.24v7.6h4.24v22.08c0 9.36 5.2 12.32 14.24 12.32zm13.68-.96h23.52v-8.4l-2.8-.8V31.28c1.36-.48 2.64-.88 4.4-.88 2.8 0 4.08 1.04 4.08 3.92V52.8l-2.8.8V62h23.12v-8.4l-3.84-1.12V28.4c0-7.44-4.72-10.48-10.96-10.48-6.16 0-9.76 2.16-13.6 5.28h-.4V2.64l-1.44-.72-19.6 1.92v8.48l4.56 1.28v38.88l-4.24 1.12V62zm75.04 1.04c-15.2 0-23.44-7.84-23.44-22.64 0-14.24 8.64-22.48 22.32-22.48 13.44 0 20.08 6.16 20.08 25.36h-25.28c.88 6.64 4.56 8.56 10.96 8.56 5.52 0 9.28-.96 12.32-1.92v8.8c-3.2 2.16-8.4 4.32-16.96 4.32zm-1.28-35.44c-2.48 0-4.56 1.44-5.12 8.16l9.68-.4c0-6.24-2.08-7.76-4.56-7.76zM80.16 158v-8.16l4.24-1.04v-39.12l-4.48-1.28v-8.56L98.88 98l1.36.64v4.24h.48c2.24-2.24 6.48-5.04 12.24-5.04 7.68 0 15.36 4.88 15.36 20.88 0 18.08-9.68 24.32-21.92 24.32-3.12 0-4.24-.16-5.52-.4v6.24l4.88.96V158h-25.6zm24.64-24.8c4 0 6.16-2.16 6.16-12.56 0-8.4-1.76-11.12-5.52-11.12-2.08 0-3.44.4-4.56 1.04V132c.88.64 1.92 1.2 3.92 1.2zm38.56 9.84c-7.84 0-12.72-4.96-12.72-11.84 0-8.64 6.08-11.44 16.32-13.28l6.72-1.28v-1.52c0-3.76-1.76-5.28-7.68-5.28-3.92 0-8.16.32-11.12.8v-9.68c4.32-1.52 11.12-3.04 18.88-3.04 11.28 0 16.4 4.72 16.4 14.48v17.92c0 1.84 1.2 2.48 2.64 2.48h1.12v8c-1.6 1.04-5.44 2.24-9.12 2.24-4.96 0-7.92-1.52-9.28-5.2h-.4c-2.16 2.88-6.32 5.2-11.76 5.2zm7.12-9.36c1.36 0 2.56-.64 3.2-1.28v-8.56l-2.64.08c-2.72.16-4.08 1.6-4.08 4.96 0 3.44.96 4.8 3.52 4.8zm43.68 9.28c4.96 0 8.8-1.12 10.8-2.32v-8.8c-1.04.32-2.4.56-3.68.56-3.12 0-4.88-.88-4.88-4.4v-19.44h8.16v-9.68h-8.16V88.8h-13.04l-1.92 9.92-5.76 2.24v7.6h4.24v22.08c0 9.36 5.2 12.32 14.24 12.32zm36.72.08c7.44 0 12.56-2.16 15.12-4v-8.96c-2.24.88-6 1.68-9.76 1.68-7.12 0-10.88-2.88-10.88-12.32 0-8.96 2.32-11.68 6.16-11.68 1.6 0 2.16.32 2.72.56l.96 5.52h10.64V99.68c-2.48-.88-8.08-1.76-13.68-1.76-14.88 0-24.32 7.12-24.32 22.8 0 13.84 7.28 22.32 23.04 22.32zm18.64-1.04h23.52v-8.4l-2.8-.8v-21.52c1.36-.48 2.64-.88 4.4-.88 2.8 0 4.08 1.04 4.08 3.92v18.48l-2.8.8v8.4h23.12v-8.4l-3.84-1.12V108.4c0-7.44-4.72-10.48-10.96-10.48-6.16 0-9.76 2.16-13.6 5.28h-.4V82.64l-1.44-.72-19.6 1.92v8.48l4.56 1.28v38.88l-4.24 1.12v8.4z" id="the-patch"/></g></g></g></svg>