<svg width="314" height="47" viewBox="0 0 314 47" xmlns="http://www.w3.org/2000/svg"><title>floor-14-type-mobile</title><g id="Assets" fill="none" fill-rule="evenodd"><g id="floor-14-type-mobile" fill="#EAEAEA"><g id="maxilla-social-club"><path d="M.672 37h14.016v-5.04l-1.584-.48V18.568c.816-.336 1.392-.528 2.496-.528 1.632 0 2.256.624 2.256 2.448V31.48l-1.536.48V37h13.008v-5.04l-1.584-.48V19.432c0-.24-.048-.768-.048-.864.816-.336 1.536-.528 2.448-.528 1.728 0 2.352.624 2.352 2.448V31.48l-1.536.48V37h13.68v-5.04l-2.256-.672V16.936c0-4.464-3.024-6.384-6.624-6.384-3.648 0-6.432 1.488-8.496 3.408h-.24c-1.008-2.352-3.216-3.408-5.856-3.408-3.648 0-6 1.296-8.16 3.168h-.288v-2.736l-.816-.384L.48 11.704v5.136l2.736.768v13.68l-2.544.672V37zm52.752.624c-4.704 0-7.632-2.976-7.632-7.104 0-5.184 3.648-6.864 9.792-7.968l4.032-.768v-.912c0-2.256-1.056-3.168-4.608-3.168-2.352 0-4.896.192-6.672.48v-5.808c2.592-.912 6.672-1.824 11.328-1.824 6.768 0 9.84 2.832 9.84 8.688v10.752c0 1.104.72 1.488 1.584 1.488h.672v4.8c-.96.624-3.264 1.344-5.472 1.344-2.976 0-4.752-.912-5.568-3.12h-.24c-1.296 1.728-3.792 3.12-7.056 3.12zm4.272-5.616c.816 0 1.536-.384 1.92-.768v-5.136l-1.584.048c-1.632.096-2.448.96-2.448 2.976 0 2.064.576 2.88 2.112 2.88zM73.152 37h11.376v-5.04l-1.824-.48 2.688-3.84h.144l2.736 3.84-1.776.48V37h15.36v-5.04l-2.064-.624-5.28-6.768 5.616-7.824 1.536-.576v-5.04H91.056v5.04l1.776.48-2.592 4.032h-.192l-2.592-4.032 1.776-.48v-5.04h-15.6v5.04l2.16.672 5.424 6.96-5.952 7.536-2.112.624V37zm30 0h14.784v-5.04l-2.352-.672V10.984l-.864-.384-11.808 1.104v5.136l2.784.768v13.68l-2.544.672V37zM110.4 9.64c2.976 0 5.376-1.728 5.376-4.704S113.376.232 110.4.232c-2.928 0-5.376 1.728-5.376 4.704s2.448 4.704 5.376 4.704zM119.232 37h15.024v-5.04l-2.496-.672V1.384L130.944 1l-11.952 1.104v5.088l2.88.816v23.28l-2.64.672V37zm16.32 0h15.024v-5.04l-2.496-.672V1.384L147.264 1l-11.952 1.104v5.088l2.88.816v23.28l-2.64.672V37zm23.808.624c-4.704 0-7.632-2.976-7.632-7.104 0-5.184 3.648-6.864 9.792-7.968l4.032-.768v-.912c0-2.256-1.056-3.168-4.608-3.168-2.352 0-4.896.192-6.672.48v-5.808c2.592-.912 6.672-1.824 11.328-1.824 6.768 0 9.84 2.832 9.84 8.688v10.752c0 1.104.72 1.488 1.584 1.488h.672v4.8c-.96.624-3.264 1.344-5.472 1.344-2.976 0-4.752-.912-5.568-3.12h-.24c-1.296 1.728-3.792 3.12-7.056 3.12zm4.272-5.616c.816 0 1.536-.384 1.92-.768v-5.136l-1.584.048c-1.632.096-2.448.96-2.448 2.976 0 2.064.576 2.88 2.112 2.88zm37.296 5.616c4.464 0 7.536-1.296 9.072-2.4v-5.376c-1.344.528-3.6 1.008-5.856 1.008-4.272 0-6.528-1.728-6.528-7.392 0-5.376 1.392-7.008 3.696-7.008.96 0 1.296.192 1.632.336l.576 3.312h6.384v-8.496c-1.488-.528-4.848-1.056-8.208-1.056-8.928 0-14.592 4.272-14.592 13.68 0 8.304 4.368 13.392 13.824 13.392zM212.112 37h15.024v-5.04l-2.496-.672V1.384L223.824 1l-11.952 1.104v5.088l2.88.816v23.28l-2.64.672V37zm25.968.576c3.6 0 5.952-1.536 7.584-3.264h.288v2.784l.864.384 11.232-1.152v-5.04l-2.544-.768V11.032l-.864-.432-11.328 1.056v5.088l2.304.816v12c-.72.288-1.488.576-2.736.576-1.776 0-2.4-.768-2.4-2.496V11.032l-.816-.432-11.52 1.056v5.088l2.448.816v12.96c0 4.464 2.112 7.056 7.488 7.056zm35.04.048c-5.28 0-9.696-1.056-12.048-2.448V8.2l-2.496-.768V2.056l11.52-1.104.864.384v11.856h.288c1.392-1.2 3.504-2.688 6.96-2.688 4.608 0 9.216 2.928 9.216 12.528 0 10.848-5.856 14.592-14.304 14.592zm.192-5.904c2.4 0 3.696-1.296 3.696-7.536 0-5.04-1.056-6.672-3.312-6.672-1.248 0-2.064.24-2.736.624V31c.528.384 1.104.72 2.352.72z" id="maxilla-club"/></g></g></g></svg>