<svg width="314" height="47" viewBox="0 0 314 47" xmlns="http://www.w3.org/2000/svg"><title>floor-14-type-mobile</title><g id="Assets" fill="none" fill-rule="evenodd"><g id="floor-14-type-mobile" fill="#EAEAEA"><g id="a-landing"><path d="M11.568 37.576c2.976 0 5.28-.672 6.48-1.392v-5.28c-.624.192-1.44.336-2.208.336-1.872 0-2.928-.528-2.928-2.64V16.936h4.896v-5.808h-4.896V5.08H5.088l-1.152 5.952L.48 12.376v4.56h2.544v13.248c0 5.616 3.12 7.392 8.544 7.392zM19.776 37h14.112v-5.04l-1.68-.48V18.568c.816-.288 1.584-.528 2.64-.528 1.68 0 2.448.624 2.448 2.352V31.48l-1.68.48V37h13.872v-5.04l-2.304-.672V16.84c0-4.464-2.832-6.288-6.576-6.288-3.696 0-5.856 1.296-8.16 3.168h-.24V1.384l-.864-.432-11.76 1.152v5.088l2.736.768v23.328l-2.544.672V37zm45.024.624c-9.12 0-14.064-4.704-14.064-13.584 0-8.544 5.184-13.488 13.392-13.488 8.064 0 12.048 3.696 12.048 15.216H61.008c.528 3.984 2.736 5.136 6.576 5.136 3.312 0 5.568-.576 7.392-1.152v5.28c-1.92 1.296-5.04 2.592-10.176 2.592zm-.768-21.264c-1.488 0-2.736.864-3.072 4.896l5.808-.24c0-3.744-1.248-4.656-2.736-4.656zM85.872 37h15.024v-5.04l-2.496-.672V1.384L97.584 1 85.632 2.104v5.088l2.88.816v23.28l-2.64.672V37zm23.808.624c-4.704 0-7.632-2.976-7.632-7.104 0-5.184 3.648-6.864 9.792-7.968l4.032-.768v-.912c0-2.256-1.056-3.168-4.608-3.168-2.352 0-4.896.192-6.672.48v-5.808c2.592-.912 6.672-1.824 11.328-1.824 6.768 0 9.84 2.832 9.84 8.688v10.752c0 1.104.72 1.488 1.584 1.488h.672v4.8c-.96.624-3.264 1.344-5.472 1.344-2.976 0-4.752-.912-5.568-3.12h-.24c-1.296 1.728-3.792 3.12-7.056 3.12zm4.272-5.616c.816 0 1.536-.384 1.92-.768v-5.136l-1.584.048c-1.632.096-2.448.96-2.448 2.976 0 2.064.576 2.88 2.112 2.88zM129.264 37h14.112v-5.04l-1.68-.48V18.568c.816-.288 1.584-.528 2.64-.528 1.68 0 2.448.624 2.448 2.352V31.48l-1.68.48V37h13.872v-5.04l-2.304-.672V16.84c0-4.464-2.832-6.288-6.576-6.288-3.696 0-6.048 1.296-8.496 3.312h-.288v-2.88l-.816-.384-11.424 1.104v5.136l2.736.768v13.68l-2.544.672V37zm41.088.576c-4.848 0-9.888-3.024-9.888-12.864 0-10.608 5.616-14.16 12.384-14.16 2.016 0 3.072.336 4.08.768V8.008l-2.784-.768V2.104L185.952 1l.864.384V30.52l2.544.768v5.04L178.8 37.48l-.816-.384v-2.448h-.288c-1.392 1.776-4.08 2.928-7.344 2.928zm3.936-6.864c1.104 0 1.92-.24 2.64-.672V17.368c-.576-.432-1.152-.768-2.352-.768-2.256 0-3.696 1.248-3.696 7.104 0 5.376 1.2 7.008 3.408 7.008zM190.704 37h14.784v-5.04l-2.352-.672V10.984l-.864-.384-11.808 1.104v5.136l2.784.768v13.68l-2.544.672V37zm7.248-27.36c2.976 0 5.376-1.728 5.376-4.704s-2.4-4.704-5.376-4.704c-2.928 0-5.376 1.728-5.376 4.704s2.448 4.704 5.376 4.704zM206.784 37h14.112v-5.04l-1.68-.48V18.568c.816-.288 1.584-.528 2.64-.528 1.68 0 2.448.624 2.448 2.352V31.48l-1.68.48V37h13.872v-5.04l-2.304-.672V16.84c0-4.464-2.832-6.288-6.576-6.288-3.696 0-6.048 1.296-8.496 3.312h-.288v-2.88l-.816-.384-11.424 1.104v5.136l2.736.768v13.68l-2.544.672V37zm42.912 9.744c-8.4 0-12.672-2.256-12.672-5.808 0-2.928 2.64-4.416 5.52-5.088v-.24c-2.4-.672-3.504-2.16-3.504-4.32s1.728-4.224 3.792-5.52c-2.4-1.296-4.032-3.504-4.032-6.48 0-5.616 4.704-8.688 11.76-8.688 2.208 0 4.032.288 5.568.768l8.448-1.2v5.664l-3.168-.096c.528.96.864 1.92.864 3.024 0 5.616-4.512 8.736-11.712 8.736-1.248 0-2.304-.096-3.36-.288-.288.336-.384.768-.384 1.152 0 .528.384 1.248 1.728 1.248h8.352c4.56 0 8.064 2.064 8.064 7.2 0 5.424-4.272 9.936-15.264 9.936zm.72-5.424c4.08 0 5.424-1.056 5.424-2.304 0-1.2-.672-1.536-2.736-1.536h-5.568c-.816.336-1.392.864-1.392 1.872 0 1.152 1.104 1.968 4.272 1.968zm.144-18.576c1.392 0 2.544-.816 2.544-3.648 0-3.168-1.104-3.744-2.544-3.744-1.392 0-2.496.768-2.496 3.6 0 2.976 1.104 3.792 2.496 3.792z" id="the-landing"/></g></g></g></svg>