<svg width="314" height="47" viewBox="0 0 314 47" xmlns="http://www.w3.org/2000/svg"><title>floor-14-type-mobile</title><g id="Assets" fill="none" fill-rule="evenodd"><g id="floor-14-type-mobile" fill="#EAEAEA"><g id="the-allotment"><path d="M11.568 37.576c2.976 0 5.28-.672 6.48-1.392v-5.28c-.624.192-1.44.336-2.208.336-1.872 0-2.928-.528-2.928-2.64V16.936h4.896v-5.808h-4.896V5.08H5.088l-1.152 5.952L.48 12.376v4.56h2.544v13.248c0 5.616 3.12 7.392 8.544 7.392zM19.776 37h14.112v-5.04l-1.68-.48V18.568c.816-.288 1.584-.528 2.64-.528 1.68 0 2.448.624 2.448 2.352V31.48l-1.68.48V37h13.872v-5.04l-2.304-.672V16.84c0-4.464-2.832-6.288-6.576-6.288-3.696 0-5.856 1.296-8.16 3.168h-.24V1.384l-.864-.432-11.76 1.152v5.088l2.736.768v23.328l-2.544.672V37zm45.024.624c-9.12 0-14.064-4.704-14.064-13.584 0-8.544 5.184-13.488 13.392-13.488 8.064 0 12.048 3.696 12.048 15.216H61.008c.528 3.984 2.736 5.136 6.576 5.136 3.312 0 5.568-.576 7.392-1.152v5.28c-1.92 1.296-5.04 2.592-10.176 2.592zm-.768-21.264c-1.488 0-2.736.864-3.072 4.896l5.808-.24c0-3.744-1.248-4.656-2.736-4.656zM85.824 46.6v-4.896l2.544-.624V17.608l-2.688-.768v-5.136L97.056 10.6l.816.384v2.544h.288c1.344-1.344 3.888-3.024 7.344-3.024 4.608 0 9.216 2.928 9.216 12.528 0 10.848-5.808 14.592-13.152 14.592-1.872 0-2.544-.096-3.312-.24v3.744l2.928.576V46.6h-15.36zm14.784-14.88c2.4 0 3.696-1.296 3.696-7.536 0-5.04-1.056-6.672-3.312-6.672-1.248 0-2.064.24-2.736.624V31c.528.384 1.152.72 2.352.72zm23.136 5.904c-4.704 0-7.632-2.976-7.632-7.104 0-5.184 3.648-6.864 9.792-7.968l4.032-.768v-.912c0-2.256-1.056-3.168-4.608-3.168-2.352 0-4.896.192-6.672.48v-5.808c2.592-.912 6.672-1.824 11.328-1.824 6.768 0 9.84 2.832 9.84 8.688v10.752c0 1.104.72 1.488 1.584 1.488h.672v4.8c-.96.624-3.264 1.344-5.472 1.344-2.976 0-4.752-.912-5.568-3.12h-.24c-1.296 1.728-3.792 3.12-7.056 3.12zm4.272-5.616c.816 0 1.536-.384 1.92-.768v-5.136l-1.584.048c-1.632.096-2.448.96-2.448 2.976 0 2.064.576 2.88 2.112 2.88zm26.208 5.568c2.976 0 5.28-.672 6.48-1.392v-5.28c-.624.192-1.44.336-2.208.336-1.872 0-2.928-.528-2.928-2.64V16.936h4.896v-5.808h-4.896V5.08h-7.824l-1.152 5.952-3.456 1.344v4.56h2.544v13.248c0 5.616 3.12 7.392 8.544 7.392zm22.032.048c4.464 0 7.536-1.296 9.072-2.4v-5.376c-1.344.528-3.6 1.008-5.856 1.008-4.272 0-6.528-1.728-6.528-7.392 0-5.376 1.392-7.008 3.696-7.008.96 0 1.296.192 1.632.336l.576 3.312h6.384v-8.496c-1.488-.528-4.848-1.056-8.208-1.056-8.928 0-14.592 4.272-14.592 13.68 0 8.304 4.368 13.392 13.824 13.392zM187.44 37h14.112v-5.04l-1.68-.48V18.568c.816-.288 1.584-.528 2.64-.528 1.68 0 2.448.624 2.448 2.352V31.48l-1.68.48V37h13.872v-5.04l-2.304-.672V16.84c0-4.464-2.832-6.288-6.576-6.288-3.696 0-5.856 1.296-8.16 3.168h-.24V1.384l-.864-.432-11.76 1.152v5.088l2.736.768v23.328l-2.544.672V37z" id="the-patch"/></g></g></g></svg>