<svg width="314" height="47" viewBox="0 0 314 47" xmlns="http://www.w3.org/2000/svg"><title>floor-14-type-mobile</title><g id="Assets" fill="none" fill-rule="evenodd"><g id="floor-14-type-mobile" fill="#EAEAEA"><g id="floor-20"><path d="M16.8 37h14.064v-5.04l-2.496-.48V1.384L27.552 1 20.4 2.104c-1.68-.48-4.32-1.056-7.008-1.056-5.424 0-10.176 1.92-10.176 8.112v2.16L.528 12.376v4.56h2.688v14.352l-2.544.672V37h14.112v-5.04l-1.68-.48V16.936h3.408v-5.808h-3.408v-.96c0-2.064.96-2.544 2.976-2.544.96 0 1.68.144 2.4.336v23.52l-1.68.48V37zm28.992.624c-8.928 0-13.632-5.136-13.632-13.392 0-9.072 6-13.68 13.632-13.68 8.928 0 13.632 4.8 13.632 13.344 0 9.072-6.048 13.728-13.632 13.728zm.048-5.952c2.064 0 3.12-1.488 3.12-7.44 0-6.336-1.152-7.776-3.216-7.776s-3.168 1.248-3.168 7.44c0 6.336 1.152 7.776 3.264 7.776zm28.56 5.952c-8.928 0-13.632-5.136-13.632-13.392 0-9.072 6-13.68 13.632-13.68 8.928 0 13.632 4.8 13.632 13.344 0 9.072-6.048 13.728-13.632 13.728zm.048-5.952c2.064 0 3.12-1.488 3.12-7.44 0-6.336-1.152-7.776-3.216-7.776s-3.168 1.248-3.168 7.44c0 6.336 1.152 7.776 3.264 7.776zM89.376 37h15.936v-5.04l-3.504-.672V20.104c1.44-.576 2.976-.768 5.328-.768.912 0 1.824.096 2.352.24V10.84c-.336-.096-.864-.144-1.296-.144-2.976 0-5.136 1.824-6.48 4.272h-.288v-3.984l-.816-.384-11.424 1.104v5.136l2.736.768v13.68l-2.544.672V37zm29.376 0h23.904l.816-10.128h-5.664l-1.488 3.072h-6.96v-.096l3.936-2.688c5.856-3.984 9.648-8.016 9.648-13.392 0-6.432-4.128-10.56-11.904-10.56-4.704 0-8.832 1.488-11.328 2.88v6.288c1.968-.624 4.752-1.008 6.96-1.008 3.168 0 4.848 1.296 4.848 4.176s-2.016 5.232-5.376 8.448l-7.392 7.056V37zm41.664.576c-8.592 0-14.976-5.28-14.976-17.04 0-12.24 7.248-17.376 15.216-17.376 8.496 0 14.928 5.28 14.928 17.04 0 12.24-7.2 17.376-15.168 17.376zm.144-6.384c2.4 0 3.552-2.976 3.552-10.512 0-8.736-.816-11.088-3.6-11.088-2.4 0-3.6 3.024-3.6 10.512 0 8.688.816 11.088 3.648 11.088z"/></g></g></g></svg>