<svg width="314" height="47" viewBox="0 0 314 47" xmlns="http://www.w3.org/2000/svg"><title>floor-14-type-mobile</title><g id="Assets" fill="none" fill-rule="evenodd"><g id="floor-14-type-mobile" fill="#EAEAEA"><g id="postscript"><path d="M8.112 37h8.736l3.84-13.44h.144L24.672 37h8.64l5.952-20.208 1.824-.624v-5.04H30.144v5.04l1.776.528-2.112 8.88h-.192L25.44 11.128h-6.912l-4.176 14.448h-.192L12 16.696l1.872-.528v-5.04H.336v5.04l1.824.624L8.112 37zm48.24.624c-9.12 0-14.064-4.704-14.064-13.584 0-8.544 5.184-13.488 13.392-13.488 8.064 0 12.048 3.696 12.048 15.216H52.56c.528 3.984 2.736 5.136 6.576 5.136 3.312 0 5.568-.576 7.392-1.152v5.28c-1.92 1.296-5.04 2.592-10.176 2.592zm-.768-21.264c-1.488 0-2.736.864-3.072 4.896l5.808-.24c0-3.744-1.248-4.656-2.736-4.656zm27.744 21.264c-9.12 0-14.064-4.704-14.064-13.584 0-8.544 5.184-13.488 13.392-13.488 8.064 0 12.048 3.696 12.048 15.216H79.536c.528 3.984 2.736 5.136 6.576 5.136 3.312 0 5.568-.576 7.392-1.152v5.28c-1.92 1.296-5.04 2.592-10.176 2.592zM82.56 16.36c-1.488 0-2.736.864-3.072 4.896l5.808-.24c0-3.744-1.248-4.656-2.736-4.656zm26.112-14.976l-.864-.432-11.76 1.152v5.088l2.736.768v23.328l-2.544.672V37h14.304v-5.04l-1.872-.48v-3.6l1.2-.288L115.776 37h9.264v-5.04l-1.584-.432-6.48-9.6 4.992-5.088 2.256-.672v-5.04h-12.288v5.04l2.352.576-5.616 5.52V1.384zm27.6 36.24c9.072 0 12.72-3.696 12.72-9.456 0-3.984-2.112-6.72-7.44-7.776l-3.216-.672c-2.352-.48-3.168-.912-3.168-2.064 0-1.2 1.344-1.68 2.976-1.68 1.296 0 2.112.288 2.64.576l.48 2.256h6.096V12.04c-2.208-1.008-5.664-1.536-8.928-1.536-8.448 0-12.096 3.696-12.096 8.976 0 4.752 2.64 7.056 7.632 8.064l2.832.624c1.968.432 2.688.816 2.688 1.968 0 1.2-1.056 1.92-2.928 1.92-1.344 0-2.448-.384-2.976-.72l-.864-2.448h-6.24l.432 7.104c2.736 1.104 6.384 1.632 9.36 1.632zm22.32-.624h15.024v-5.04l-2.496-.672V1.384L170.304 1l-11.952 1.104v5.088l2.88.816v23.28l-2.64.672V37zm23.808.624c-4.704 0-7.632-2.976-7.632-7.104 0-5.184 3.648-6.864 9.792-7.968l4.032-.768v-.912c0-2.256-1.056-3.168-4.608-3.168-2.352 0-4.896.192-6.672.48v-5.808c2.592-.912 6.672-1.824 11.328-1.824 6.768 0 9.84 2.832 9.84 8.688v10.752c0 1.104.72 1.488 1.584 1.488h.672v4.8c-.96.624-3.264 1.344-5.472 1.344-2.976 0-4.752-.912-5.568-3.12h-.24c-1.296 1.728-3.792 3.12-7.056 3.12zm4.272-5.616c.816 0 1.536-.384 1.92-.768v-5.136l-1.584.048c-1.632.096-2.448.96-2.448 2.976 0 2.064.576 2.88 2.112 2.88zm26.208 5.568c2.976 0 5.28-.672 6.48-1.392v-5.28c-.624.192-1.44.336-2.208.336-1.872 0-2.928-.528-2.928-2.64V16.936h4.896v-5.808h-4.896V5.08H206.4l-1.152 5.952-3.456 1.344v4.56h2.544v13.248c0 5.616 3.12 7.392 8.544 7.392zm22.272.048c-9.12 0-14.064-4.704-14.064-13.584 0-8.544 5.184-13.488 13.392-13.488 8.064 0 12.048 3.696 12.048 15.216H231.36c.528 3.984 2.736 5.136 6.576 5.136 3.312 0 5.568-.576 7.392-1.152v5.28c-1.92 1.296-5.04 2.592-10.176 2.592zm-.768-21.264c-1.488 0-2.736.864-3.072 4.896l5.808-.24c0-3.744-1.248-4.656-2.736-4.656zM248.064 37H264v-5.04l-3.504-.672V20.104c1.44-.576 2.976-.768 5.328-.768.912 0 1.824.096 2.352.24V10.84c-.336-.096-.864-.144-1.296-.144-2.976 0-5.136 1.824-6.48 4.272h-.288v-3.984l-.816-.384-11.424 1.104v5.136l2.736.768v13.68l-2.544.672V37z" id="weeks-later"/></g></g></g></svg>