<?xml version="1.0" encoding="UTF-8"?>
<svg width="410px" height="126px" viewBox="0 0 410 126" version="1.1" xmlns="http://www.w3.org/2000/svg" xmlns:xlink="http://www.w3.org/1999/xlink">
    <!-- Generator: Sketch 50.2 (55047) - http://www.bohemiancoding.com/sketch -->
    <title>Group</title>
    <desc>Created with Sketch.</desc>
    <defs></defs>
    <g id="Khorgos" stroke="none" stroke-width="1" fill="none" fill-rule="evenodd">
        <g id="Group" transform="translate(0.000000, 1.000000)">
            <path d="M5.27326413,115.992189 L5.27326413,63.2700472 L364.722657,63.2700472 L364.722657,63.0181682 C364.722657,52.4647359 372.967137,43.7496007 383.504326,43.1643037 L397.441461,43.1643037 C401.032534,43.1643037 403.943674,40.2531636 403.943674,36.6620903 C403.943674,36.1880207 403.891829,35.7153729 403.789062,35.2525758 L403.789062,35.2525758 C402.709974,30.3930121 404.432526,25.3374489 408.254211,22.1476971 L408.85498,21.6462679 C409.520769,21.0905708 409.610015,20.1003613 409.054318,19.434573 C408.639144,18.9371476 407.961077,18.7458001 407.347115,18.9528084 C398.654013,21.8838885 393.549371,22.8197 392.033203,21.7602816 C390.474209,20.6709383 391.289186,16.3261241 394.478136,8.72583873 L394.478094,8.72582114 C395.82249,5.52169512 394.314882,1.83438913 391.110756,0.489992702 C389.458801,-0.203139004 387.589704,-0.159172285 385.972168,0.610867537 L376.849856,4.95361049 C372.282231,7.12806181 367.28712,8.25637535 362.228322,8.25637535 L357.389883,8.25637535 C355.615888,8.25637535 353.962975,7.35660641 353,5.86672691" id="Path-21" stroke="#767676"></path>
            <circle id="Oval" stroke="#C70000" stroke-width="2" fill="#FFFFFF" cx="353" cy="8" r="4"></circle>
            <circle id="Oval" stroke="#C70000" stroke-width="2" fill="#FFFFFF" cx="365" cy="63" r="4"></circle>
            <circle id="Oval" stroke="#C70000" stroke-width="2" fill="#FFFFFF" cx="5" cy="63" r="4"></circle>
            <circle id="Oval" stroke="#C70000" stroke-width="2" fill="#FFFFFF" cx="5" cy="120" r="4"></circle>
        </g>
    </g>
</svg>