<?xml version="1.0" encoding="UTF-8"?>
<svg width="342px" height="126px" viewBox="0 0 342 126" version="1.1" xmlns="http://www.w3.org/2000/svg" xmlns:xlink="http://www.w3.org/1999/xlink">
    <!-- Generator: Sketch 50.2 (55047) - http://www.bohemiancoding.com/sketch -->
    <title>Group</title>
    <desc>Created with Sketch.</desc>
    <defs></defs>
    <g id="Khorgos" stroke="none" stroke-width="1" fill="none" fill-rule="evenodd">
        <g id="01-Mobile-Khorgos" transform="translate(-6.000000, -422.000000)">
            <g id="Group" transform="translate(6.000000, 423.000000)">
                <path d="M5.27326413,115.992189 L5.27326413,63.2700472 L296.722657,63.2700472 L296.722657,63.0181682 C296.722657,52.4647359 304.967137,43.7496007 315.504326,43.1643037 L329.441461,43.1643037 C333.032534,43.1643037 335.943674,40.2531636 335.943674,36.6620903 C335.943674,36.1880207 335.891829,35.7153729 335.789063,35.2525758 L335.789063,35.2525758 C334.709974,30.3930121 336.432526,25.3374489 340.254211,22.1476971 L340.85498,21.6462679 C341.520769,21.0905708 341.610015,20.1003613 341.054318,19.434573 C340.639144,18.9371476 339.961077,18.7458001 339.347115,18.9528084 C330.654013,21.8838885 325.549371,22.8197 324.033203,21.7602816 C322.474209,20.6709383 323.289186,16.3261241 326.478136,8.72583873 L326.478094,8.72582114 C327.82249,5.52169512 326.314882,1.83438913 323.110756,0.489992702 C321.458801,-0.203139004 319.589704,-0.159172285 317.972168,0.610867537 L308.849856,4.95361049 C304.282231,7.12806181 299.28712,8.25637535 294.228322,8.25637535 L289.389883,8.25637535 C287.615888,8.25637535 285.962975,7.35660641 285,5.86672691" id="Path-21" stroke="#767676"></path>
                <circle id="Oval" stroke="#C70000" stroke-width="2" fill="#FFFFFF" cx="285" cy="8" r="4"></circle>
                <circle id="Oval" stroke="#C70000" stroke-width="2" fill="#FFFFFF" cx="297" cy="63" r="4"></circle>
                <circle id="Oval" stroke="#C70000" stroke-width="2" fill="#FFFFFF" cx="5" cy="63" r="4"></circle>
                <circle id="Oval" stroke="#C70000" stroke-width="2" fill="#FFFFFF" cx="5" cy="120" r="4"></circle>
            </g>
        </g>
    </g>
</svg>