<?xml version="1.0" encoding="UTF-8"?>
<svg width="605px" height="687px" viewBox="0 0 605 687" version="1.1" xmlns="http://www.w3.org/2000/svg" xmlns:xlink="http://www.w3.org/1999/xlink">
    <!-- Generator: Sketch 50.2 (55047) - http://www.bohemiancoding.com/sketch -->
    <title>Group 7</title>
    <desc>Created with Sketch.</desc>
    <defs></defs>
    <g id="Khorgos" stroke="none" stroke-width="1" fill="none" fill-rule="evenodd">
        <g id="03-Desktop-Khorgas-Copy-2" transform="translate(-226.000000, 0.000000)">
            <g id="Group-7" transform="translate(226.000000, -58.000000)">
                <path d="M105.240234,0.93359375 L105.240234,102.881154 C105.240234,110.240629 104.427814,117.577615 102.817734,124.758807 L101.518067,130.555508 C100.465601,135.249658 101.644223,140.166651 104.710449,143.873535 L105.75733,145.139151 C108.160438,148.044365 109.068071,151.905566 108.210938,155.577148 L107.468805,158.756119 C107.056699,160.5214 106.679416,162.294629 106.337175,164.074774 L105.087158,170.57666 C103.930641,176.592216 104.326378,182.803278 106.237005,188.623411 L107.777807,193.316987 C108.912046,196.772093 108.423059,200.554803 106.44751,203.60791 L106.44751,203.60791 C104.499777,206.618028 101.158907,208.435547 97.5735937,208.435547 L87.9362138,208.435547 C84.8105517,208.435547 82.276702,210.969397 82.276702,214.095059 C82.276702,215.754609 83.0050982,217.330531 84.2691545,218.40583 L105.094152,236.121105 C107.934547,238.537355 109.571289,242.078528 109.571289,245.807617 L109.571289,245.807617 C109.571289,249.704049 108.984908,253.578294 107.831845,257.300206 L107.405762,258.675537 C105.970251,263.309144 105.240234,268.132401 105.240234,272.983278 L105.240234,285.15625 L103.969142,286.057588 C98.6107793,289.857228 91.4281688,289.824652 86.1044922,285.976562 L84.8281961,285.039741 C80.8501035,282.119757 75.5239557,281.821394 71.2446289,284.278809 L71.2446289,284.278809 C66.6553586,286.914209 61.3862841,288.125973 56.1068035,287.760155 L26.1191285,285.68229 C21.0956667,285.334211 16.170027,284.121354 11.5592787,282.097168 L10.1932944,281.497481 C8.17261201,280.610372 5.81538138,281.529315 4.9282724,283.549997 C4.70598724,284.056325 4.59121371,284.603278 4.59121371,285.15625 L4.59121371,301.286133 L4.59121371,313.648438 L4.59121371,361.72168 L4.59121371,383.071289 L4.59121371,410.696289 L4.59121371,429.907227 L4.59121371,449.292522 L9.13092012,449.292522 C16.4586242,449.292522 23.7348509,450.516637 30.6591797,452.914327 L30.6591797,452.914327 C37.5175834,455.289189 44.8702191,455.866572 52.015253,454.591361 L56.0783447,453.8662 C59.2303134,453.303652 62.2415241,455.402793 62.804072,458.554761 C62.9643496,459.4528 62.9104408,460.375987 62.6467285,461.249268 L62.6467285,461.249268 C61.5267571,464.95804 63.6253951,468.87251 67.3341675,469.992482 C67.9918174,470.191078 68.6750733,470.291992 69.3620551,470.291992 L81.0517578,470.291992 L90.015625,470.337891 L90.015625,470.337891 C92.4322786,470.337891 94.3969284,472.286405 94.4168575,474.702977 L94.5295921,488.373045 L94.3966133,524.01736 L94.3808594,528.240128 L93.2028349,530.596177 C91.4860798,534.029687 91.9474504,538.151503 94.3808594,541.120469 L94.3808594,541.120469 C96.8159088,544.091437 97.2852688,548.213153 95.5805394,551.655538 L94.4191191,554.000811 L94.4646829,596.679429 L94.2373731,621.681511 L94.0078125,668.169922 L94.0078125,704.566895 L94.0078125,705.807129 C94.0078125,708.566395 91.7709851,710.803223 89.0117188,710.803223 L89.0117188,710.803223 C87.4915282,710.803223 86.2591703,712.035581 86.2591703,713.555771 C86.2591703,714.076395 86.4068211,714.586344 86.6849851,715.026429 L89.5222783,719.515322 C92.8945554,724.850616 94.6845769,731.032902 94.6845769,737.344606 L94.3808594,740.496094 L558.955079,740.496094 L558.955079,740.244215 C558.955079,729.690782 567.199559,720.975647 577.736748,720.39035 L591.673883,720.39035 C595.264956,720.39035 598.176096,717.47921 598.176096,713.888137 C598.176096,713.414067 598.124251,712.941419 598.021484,712.478622 L598.021484,712.478622 C596.942396,707.619059 598.664948,702.563495 602.486633,699.373744 L603.087402,698.872314 C603.753191,698.316617 603.842437,697.326408 603.28674,696.66062 C602.871566,696.163194 602.193498,695.971847 601.579537,696.178855 C592.886435,699.109935 587.781793,700.045746 586.265625,698.986328 C584.706631,697.896985 585.521608,693.552171 588.710558,685.951885 L588.710516,685.951868 C590.054912,682.747742 588.547304,679.060436 585.343178,677.716039 C583.691223,677.022908 581.822126,677.066874 580.20459,677.836914 L571.082278,682.179657 C566.514653,684.354108 561.519542,685.482422 556.460744,685.482422 L551.622305,685.482422 C549.848309,685.482422 548.195397,684.582653 547.232422,683.092773" id="Path-21" stroke="#767676"></path>
                <circle id="Oval" stroke="#C70000" stroke-width="2" fill="#FFFFFF" cx="94" cy="740" r="4"></circle>
                <circle id="Oval-Copy" stroke="#C70000" stroke-width="2" fill="#FFFFFF" cx="83" cy="470" r="4"></circle>
                <circle id="Oval-Copy" stroke="#C70000" stroke-width="2" fill="#FFFFFF" cx="5" cy="450" r="4"></circle>
                <circle id="Oval-Copy-3" stroke="#C70000" stroke-width="2" fill="#FFFFFF" cx="105" cy="285" r="4"></circle>
                <circle id="Oval" stroke="#C70000" stroke-width="2" fill="#FFFFFF" cx="548" cy="685" r="4"></circle>
            </g>
        </g>
    </g>
</svg>