<?xml version="1.0" encoding="UTF-8"?>
<svg width="420px" height="126px" viewBox="0 0 420 126" version="1.1" xmlns="http://www.w3.org/2000/svg" xmlns:xlink="http://www.w3.org/1999/xlink">
    <!-- Generator: Sketch 50.2 (55047) - http://www.bohemiancoding.com/sketch -->
    <title>Group</title>
    <desc>Created with Sketch.</desc>
    <defs></defs>
    <g id="Khorgos" stroke="none" stroke-width="1" fill="none" fill-rule="evenodd">
        <g id="Group" transform="translate(0.000000, 1.000000)">
            <path d="M5.27326413,115.992189 L5.27326413,63.2700472 L374.722657,63.2700472 L374.722657,63.0181682 C374.722657,52.4647359 382.967137,43.7496007 393.504326,43.1643037 L407.441461,43.1643037 C411.032534,43.1643037 413.943674,40.2531636 413.943674,36.6620903 C413.943674,36.1880207 413.891829,35.7153729 413.789062,35.2525758 L413.789062,35.2525758 C412.709974,30.3930121 414.432526,25.3374489 418.254211,22.1476971 L418.85498,21.6462679 C419.520769,21.0905708 419.610015,20.1003613 419.054318,19.434573 C418.639144,18.9371476 417.961077,18.7458001 417.347115,18.9528084 C408.654013,21.8838885 403.549371,22.8197 402.033203,21.7602816 C400.474209,20.6709383 401.289186,16.3261241 404.478136,8.72583873 L404.478094,8.72582114 C405.82249,5.52169512 404.314882,1.83438913 401.110756,0.489992702 C399.458801,-0.203139004 397.589704,-0.159172285 395.972168,0.610867537 L386.849856,4.95361049 C382.282231,7.12806181 377.28712,8.25637535 372.228322,8.25637535 L367.389883,8.25637535 C365.615888,8.25637535 363.962975,7.35660641 363,5.86672691" id="Path-21" stroke="#767676"></path>
            <circle id="Oval" stroke="#C70000" stroke-width="2" fill="#FFFFFF" cx="363" cy="8" r="4"></circle>
            <circle id="Oval" stroke="#C70000" stroke-width="2" fill="#FFFFFF" cx="375" cy="63" r="4"></circle>
            <circle id="Oval" stroke="#C70000" stroke-width="2" fill="#FFFFFF" cx="5" cy="63" r="4"></circle>
            <circle id="Oval" stroke="#C70000" stroke-width="2" fill="#FFFFFF" cx="5" cy="120" r="4"></circle>
        </g>
    </g>
</svg>